<svg id="Ebene_1" data-name="Ebene 1" xmlns="http://www.w3.org/2000/svg" viewBox="0 0 963.27 829.02"><defs><style>.cls-1,.cls-2{fill:none;}.cls-2{stroke:#6db33f;stroke-miterlimit:10;stroke-width:10px;}.cls-3{fill:#6db33f;}</style></defs><title>lettuce-green-transparent</title><path class="cls-1" d="M627.31,174.61l.37.54c.72,1,1.48,2.18,2.27,3.42l.19.29c1.43,2.15,2.82,4.36,4.27,6.7l1.16,1.89c.94,1.53,1.83,3,2.6,4.33l.05.1c.49.86,1,1.73,1.54,2.59.34.56.68,1.11,1,1.67l8.18,14.33,15.82-4.7c2.17-.65,4.44-1.24,6.84-1.87l3.93-1,.14,0c.78-.22,1.54-.41,2.3-.61,1-.25,1.91-.49,2.89-.76,5.18-1.34,10.42-2.6,15.58-3.75l.34-.08c2.15-.52,4.43-1,6.84-1.45l.39-.08c4.49-1,9.38-2,14.51-2.88,7-1.25,14.12-2.32,21.07-3.18,1.13-.14,2.26-.25,3.4-.36,1.37-.14,2.75-.28,4.12-.44,6.29-.71,12.2-1.28,18.07-1.76l21.2-2.13.85-17.93c.22-4.58.33-9.11.33-13.48A325.18,325.18,0,0,0,776.37,69l-3.13-11.55-11.56-3.11A329.11,329.11,0,0,0,564.77,63l-34.14,12.5L558.7,98.62A350,350,0,0,1,627.31,174.61Z" transform="translate(-23.79 -12.37)"/><path class="cls-1" d="M659.68,630.25v-.15c-.4-5.15-.82-10.48-1.35-15.72L657,604.72c-.56-4.78-1.2-9.42-1.91-13.8-.38-2.59-.84-5-1.27-7.3-.21-1.12-.42-2.25-.62-3.38l0-.18c-.72-3.91-1.47-8-2.33-12.07s-1.85-8.16-2.78-12l0-.15c-.82-3.27-1.66-6.66-2.64-10.13-1.25-4.77-2.59-9.42-3.63-13-.8-2.84-1.66-5.54-2.52-8.23l-.87-2.63c-1.31-4-2.67-8-4.17-12.2-.48-1.42-1-2.75-1.44-3.92l-.46-1.2A454.17,454.17,0,0,0,443.86,277.15l-.74-.45-.35-.17c-5.21-3.2-10.5-6.15-15.63-9l-.35-.19-2-1.08-2.43-1.33c-4-2.18-8.09-4.21-12-6.19-2.73-1.36-5.54-2.77-8.51-4.14l-7.31-3.35-.23-.1c-3.92-1.75-8-3.57-12.2-5.3A456.23,456.23,0,0,0,290.49,219l-.2,0-.54-.1-1.11-.2h-.11c-5.59-1-11-1.81-16.42-2.57l-.5-.08-1.35-.21a444,444,0,0,0-57-4l-.43,0c-.63,0-1.49-.08-2.53-.08a448.58,448.58,0,0,0-124,17.46l-11.07,3.18L72,243.39A449.46,449.46,0,0,0,184,683.18c40.55,41.24,87.82,71.86,140.51,95C379,802.14,448.29,810.56,497.74,813.9c49.82,1.58,118.66-3.31,118.66-3.31s-67.32-20.5-110.67-37.89c-44.8-20.23-120.52-63.82-160.23-120.91a345.46,345.46,0,0,1-62.1-198.19,12.89,12.89,0,0,1,25.79,0c0,85.65,33.37,166.34,94,227.22S599.5,786.28,647.56,798.72c9.54-40,10-49.7,10.17-51.18,3.9-34.58,3.13-53.9,3.13-85.11C660.86,654.41,659.89,632.74,659.68,630.25Z" transform="translate(-23.79 -12.37)"/><path class="cls-1" d="M224.53,184.93l17.63,2c1.9.21,4,.45,6.34.58,14.32,1.11,28.72,2.94,44,5.59l.86.16.89.17A475.63,475.63,0,0,1,387,220c1.61.68,3.06,1.24,4.35,1.74,3.06,1.24,6.45,2.69,10.42,4.46,3.36,1.48,6.53,2.88,9.69,4.36,1.64.81,3.21,1.54,4.74,2.25.94.44,1.89.87,2.79,1.31a468.94,468.94,0,0,1,74.16,44.71l12.35,9.11,12.35-9.1c.9-.66,2-1.39,3.1-2.16l2.48-1.71.16-.11c3.37-2.41,6.72-4.71,10.27-7.14,3.38-2.29,6.58-4.45,9.9-6.54,2.72-1.72,5.3-3.34,8-5,3.94-2.41,8-4.89,12-7.18l4.77-2.68c13.06-7.32,24-12.93,34.52-17.66L624.44,219l-12-20.06c-.92-1.54-2-3.27-3.18-5.12-2-3.17-4-6.13-6-9.07s-4-5.6-5.91-8.22l-1.75-2.38c-1.92-2.64-4.1-5.62-6.52-8.55L583.41,159a324.08,324.08,0,0,0-33.69-34.24c-2-1.77-4-3.6-6.25-5.49l-.11-.09c-2.63-2.21-5.22-4.2-7.71-6.14l-2.49-1.93-.44-.34c-2.4-1.8-4.89-3.66-7.51-5.55-3.2-2.37-6.63-4.75-10.5-7.29L506,92.48A325.67,325.67,0,0,0,249.14,54.34l-11.53,3.12L234.49,69a320,320,0,0,0-11.18,84.72c0,4.48.11,9,.33,13.5Z" transform="translate(-23.79 -12.37)"/><path class="cls-1" d="M935.64,232.33l-11.07-3.18a448.58,448.58,0,0,0-124-17.46c-1,0-1.82,0-2.43.08l-.77,0c-6,.1-12.13.21-18.38.53l-1.23.1-.69.08-1.1,0c-4.7.31-9.57.62-14.4,1.05l-6.43.62-.6.07c-1.44.18-2.85.34-4.26.5-1.8.2-3.58.4-5.37.63l-2.94.36c-2.15.25-4.36.52-6.73.89-2.08.26-4,.6-5.74.9a454.58,454.58,0,0,0-182.77,72.55l-21,14.31,18.2,17.78A474.58,474.58,0,0,1,680.62,585.39l.94,5.35c.81,4.79,1.37,9.8,2,15.1l.08.65c.37,2.57.75,5.22,1,7.7.3,3.18.53,6.43.77,9.87.13,1.82.25,3.64.39,5.45.1,1.54.23,3.07.36,4.62s.24,2.85.33,4.31c.38,8,.58,16.14.58,24.2,0,6-.16,12.66-.49,20.21,0,1-.11,2-.18,3-.09,1.31-.17,2.62-.23,4-.19,4.39-.85,11.55-3.93,48.48-.75,8.08-8.54,49.41-8.54,49.41l35.65-18A450.69,450.69,0,0,0,938.82,243.39Z" transform="translate(-23.79 -12.37)"/><path class="cls-2" d="M958,218.12h0a12.71,12.71,0,0,0-8.22-8.16,480.78,480.78,0,0,0-117.49-22.88l-19.87-1.36.48-19.91c0-1.8.12-3.6.2-5.41.1-2.33.2-4.54.2-6.58A351.42,351.42,0,0,0,795.61,43.3a12.74,12.74,0,0,0-8.18-8.19A352.29,352.29,0,0,0,514.8,57l-9.58,5-9.58-5A351.53,351.53,0,0,0,223.33,35.11a12.73,12.73,0,0,0-8.17,8.18,352.33,352.33,0,0,0-17.73,110.53c0,2,.1,4.19.2,6.54.08,1.82.16,3.64.2,5.44l.49,20-19.93,1.31A475.88,475.88,0,0,0,61,209.93a12.73,12.73,0,0,0-8.16,8.17,474.77,474.77,0,0,0-24,149.31c0,262.82,210.65,474.45,471.56,468.87,74.11.09,108.17-6.05,126-10l28.36-6.33A476.35,476.35,0,0,0,958,218.12Z" transform="translate(-23.79 -12.37)"/><path class="cls-3" d="M564.77,63a329.11,329.11,0,0,1,196.92-8.68l11.56,3.11L776.37,69a325.18,325.18,0,0,1,11.18,84.93c0,4.36-.11,8.9-.33,13.48l-.85,17.93-21.2,2.13c-5.87.47-11.78,1-18.07,1.76-1.37.16-2.75.3-4.12.44-1.13.11-2.26.23-3.4.36-6.94.86-14.05,1.93-21.07,3.18-5.12.92-10,1.89-14.51,2.88l-.39.08c-2.41.48-4.69.94-6.84,1.45l-.34.08c-5.15,1.15-10.39,2.41-15.58,3.75-1,.27-1.93.52-2.89.76-.76.2-1.52.39-2.3.61l-.14,0-3.93,1c-2.4.63-4.67,1.22-6.84,1.87l-15.82,4.7-8.18-14.33c-.32-.56-.66-1.11-1-1.67-.52-.86-1-1.73-1.54-2.59l-.05-.1c-.76-1.35-1.65-2.8-2.6-4.33l-1.16-1.89c-1.46-2.34-2.84-4.54-4.27-6.7l-.19-.29c-.8-1.24-1.55-2.41-2.27-3.42l-.37-.54a350,350,0,0,0-68.61-76L530.63,75.51Z" transform="translate(-23.79 -12.37)"/><path class="cls-3" d="M234.49,69l3.12-11.53,11.53-3.12A325.67,325.67,0,0,1,506,92.48l8.67,5.46c3.86,2.54,7.3,4.92,10.5,7.29,2.62,1.89,5.1,3.75,7.51,5.55l.44.34,2.49,1.93c2.5,1.93,5.08,3.93,7.71,6.14l.11.09c2.22,1.88,4.27,3.72,6.25,5.49A324.08,324.08,0,0,1,583.41,159l5.66,6.61c2.42,2.92,4.6,5.91,6.52,8.55l1.75,2.38c1.94,2.62,4,5.33,5.91,8.22s4,5.89,6,9.07c1.22,1.84,2.26,3.58,3.18,5.12l12,20.06-21.33,9.61c-10.49,4.73-21.46,10.34-34.52,17.66L563.83,249c-4,2.29-8.08,4.78-12,7.18-2.71,1.65-5.29,3.27-8,5-3.32,2.08-6.52,4.25-9.9,6.54-3.55,2.43-6.9,4.73-10.27,7.14l-.16.11L521,276.63c-1.13.77-2.2,1.5-3.1,2.16l-12.35,9.1-12.35-9.11A468.94,468.94,0,0,0,419,234.08c-.9-.43-1.85-.87-2.79-1.31-1.53-.71-3.1-1.44-4.74-2.25-3.15-1.48-6.33-2.88-9.69-4.36-4-1.76-7.36-3.21-10.42-4.46-1.29-.5-2.74-1.06-4.35-1.74a475.63,475.63,0,0,0-92.76-26.56l-.89-.17-.86-.16c-15.31-2.65-29.72-4.48-44-5.59-2.29-.14-4.44-.37-6.34-.58l-17.63-2-.89-17.72c-.22-4.48-.33-9-.33-13.5A320,320,0,0,1,234.49,69Z" transform="translate(-23.79 -12.37)"/><path class="cls-3" d="M657.73,747.54c-.17,1.49-.63,11.17-10.17,51.18-48.06-12.44-183.86-57-244.41-117.89s-94-141.58-94-227.22a12.89,12.89,0,0,0-25.79,0,345.46,345.46,0,0,0,62.1,198.19c39.71,57.09,115.43,100.68,160.23,120.91,43.35,17.39,110.67,37.89,110.67,37.89s-68.84,4.88-118.66,3.31c-49.45-3.33-118.74-11.76-173.23-35.71-52.69-23.15-100-53.77-140.51-95A449.74,449.74,0,0,1,72,243.39l3.18-11.07,11.07-3.18a448.58,448.58,0,0,1,124-17.46c1,0,1.9,0,2.53.08l.43,0a444,444,0,0,1,57,4l1.35.21.5.08c5.44.76,10.82,1.6,16.42,2.57h.11l1.11.2.54.1.2,0a456.23,456.23,0,0,1,91.59,26.81c4.22,1.73,8.27,3.54,12.2,5.3l.23.1,7.31,3.35c3,1.37,5.79,2.78,8.51,4.14,4,2,8,4,12,6.19l2.43,1.33,2,1.08.35.19c5.13,2.86,10.42,5.81,15.63,9l.35.17.74.45A454.17,454.17,0,0,1,632.32,504.56l.46,1.2c.45,1.18,1,2.5,1.44,3.92,1.5,4.16,2.86,8.25,4.17,12.2l.87,2.63c.86,2.69,1.72,5.39,2.52,8.23,1,3.55,2.38,8.19,3.63,13,1,3.47,1.82,6.85,2.64,10.13l0,.15c.94,3.85,1.9,7.83,2.78,12s1.61,8.15,2.33,12.07l0,.18c.2,1.14.41,2.26.62,3.38.44,2.32.89,4.71,1.27,7.3.71,4.38,1.35,9,1.91,13.8l1.28,9.65c.52,5.25.94,10.57,1.35,15.72v.15c.21,2.5,1.18,24.17,1.18,32.19C660.86,693.64,661.63,713,657.73,747.54Z" transform="translate(-23.79 -12.37)"/><path class="cls-3" d="M889.09,604.59a449.78,449.78,0,0,1-179.75,165l-35.65,18s7.78-41.33,8.54-49.41c3.09-36.93,3.74-44.09,3.93-48.48.06-1.35.14-2.66.23-4,.07-1,.13-2,.18-3,.33-7.55.49-14.16.49-20.21,0-8.06-.19-16.2-.58-24.2-.1-1.45-.22-2.89-.33-4.31s-.25-3.09-.36-4.62c-.14-1.81-.27-3.62-.39-5.45-.24-3.44-.47-6.69-.77-9.87-.27-2.48-.65-5.13-1-7.7l-.08-.65c-.59-5.3-1.15-10.31-2-15.1l-.94-5.35A474.58,474.58,0,0,0,543.88,322.2l-18.2-17.78,21-14.31a454.58,454.58,0,0,1,182.77-72.55c1.73-.3,3.66-.64,5.74-.9,2.37-.37,4.58-.63,6.73-.89l2.94-.36c1.79-.23,3.57-.43,5.37-.63,1.41-.16,2.82-.32,4.26-.5l.6-.07,6.43-.62c4.83-.43,9.69-.75,14.4-1.05l1.1,0,.69-.08,1.23-.1c6.25-.32,12.41-.43,18.38-.53l.77,0c.61,0,1.44-.08,2.43-.08a448.58,448.58,0,0,1,124,17.46l11.07,3.18,3.18,11.07a451.21,451.21,0,0,1-49.73,361.2Z" transform="translate(-23.79 -12.37)"/></svg>